<svg width="28" height="28" viewBox="0 0 28 28" fill="none" xmlns="http://www.w3.org/2000/svg">
<path d="M21.8646 12.7186H17.625V10.5415H21.8646H22.3646V10.0415V5.354V4.854H21.8646H17.125C14.264 4.854 11.9375 7.18052 11.9375 10.0415V12.7186H9.31252H8.81252V13.2186V17.9061V18.4061H9.31252H11.9375V26.8332H4.57294C2.69535 26.8332 1.16669 25.3045 1.16669 23.4269V4.57275C1.16669 2.69517 2.69535 1.1665 4.57294 1.1665H23.4271C25.3047 1.1665 26.8334 2.69517 26.8334 4.57275V23.4269C26.8334 25.3045 25.3047 26.8332 23.4271 26.8332H17.625V18.4061H21.0834H21.5069L21.5766 17.9883L22.3578 13.3008L22.4548 12.7186H21.8646Z" stroke="white"/>
<path d="M21.8646 12.7186H17.625V10.5415H21.8646H22.3646V10.0415V5.354V4.854H21.8646H17.125C14.264 4.854 11.9375 7.18052 11.9375 10.0415V12.7186H9.31252H8.81252V13.2186V17.9061V18.4061H9.31252H11.9375V26.8332H4.57294C2.69535 26.8332 1.16669 25.3045 1.16669 23.4269V4.57275C1.16669 2.69517 2.69535 1.1665 4.57294 1.1665H23.4271C25.3047 1.1665 26.8334 2.69517 26.8334 4.57275V23.4269C26.8334 25.3045 25.3047 26.8332 23.4271 26.8332H17.625V18.4061H21.0834H21.5069L21.5766 17.9883L22.3578 13.3008L22.4548 12.7186H21.8646Z" stroke="url(#paint0_linear_1_629)"/>
<defs>
<linearGradient id="paint0_linear_1_629" x1="14" y1="0.666504" x2="14" y2="27.3332" gradientUnits="userSpaceOnUse">
<stop stop-color="white"/>
<stop offset="1" stop-color="white" stop-opacity="0"/>
</linearGradient>
</defs>
</svg>
